<svg width="510" height="84" viewBox="0 0 510 84" fill="none" xmlns="http://www.w3.org/2000/svg">
<path d="M58.0266 60.9002L57.6266 61.5002C57.3599 61.5002 57.1266 61.4669 56.9266 61.4002H57.0266C56.9599 61.4002 56.8932 61.4002 56.8266 61.4002C56.8266 61.3335 56.7932 61.3002 56.7266 61.3002C56.1932 61.3002 55.7599 61.3002 55.4266 61.3002C55.1599 61.2335 54.9266 61.1669 54.7266 61.1002H53.2266C53.0932 61.1669 52.6599 61.2002 51.9266 61.2002C51.9266 61.2002 51.8599 61.2335 51.7266 61.3002C51.5932 61.3002 51.4266 61.3335 51.2266 61.4002C50.8266 61.5335 50.2932 61.6669 49.6266 61.8002C49.0266 61.9335 48.2932 62.0669 47.4266 62.2002C43.3599 63.5335 39.8266 65.5669 36.8266 68.3002C32.0932 65.4335 28.6599 64.0002 26.5266 64.0002C26.3932 64.0002 26.1599 64.0002 25.8266 64.0002C25.5599 63.9335 25.2599 63.9002 24.9266 63.9002C24.5932 63.8335 24.2932 63.8002 24.0266 63.8002C23.7599 63.8002 23.5266 63.8002 23.3266 63.8002H22.7266C17.1932 63.8002 12.0599 65.3335 7.32656 68.4002C9.39323 63.5335 12.6266 59.8335 17.0266 57.3002C21.3599 54.6335 25.8599 53.3002 30.5266 53.3002C33.4599 53.3002 35.8932 53.7335 37.8266 54.6002V26.9002H41.5266V29.7002C43.8599 28.9669 45.5266 26.7002 46.5266 22.9002C46.5266 22.7669 46.5266 22.6335 46.5266 22.5002C46.5932 22.3669 46.6599 22.2002 46.7266 22.0002C46.7932 21.8002 46.8266 21.6002 46.8266 21.4002C46.8266 21.1335 46.8599 20.8335 46.9266 20.5002V20.2002C46.9266 14.8669 44.8932 11.2002 40.8266 9.20019L35.1266 13.1002V42.9002C35.1266 45.1669 33.7599 47.5002 31.0266 49.9002C28.0932 52.1002 25.4266 53.2002 23.0266 53.2002L22.7266 52.4002C22.7266 52.4002 22.7932 52.3335 22.9266 52.2002C23.0599 52.0002 23.3266 51.6669 23.7266 51.2002C23.7266 51.0002 23.7932 50.6335 23.9266 50.1002C23.9932 49.8335 24.0599 49.5335 24.1266 49.2002C24.1932 48.8669 24.2266 48.7335 24.2266 48.8002L24.3266 48.6002V18.1002C24.4599 17.7002 24.6266 17.2002 24.8266 16.6002C25.0932 16.0002 25.1599 15.9335 25.0266 16.4002C25.4266 15.6002 25.9599 14.9669 26.6266 14.5002V14.4002L47.3266 0.200195C53.3932 2.46686 56.4266 6.86686 56.4266 13.4002V13.8002C56.4266 14.5335 56.3932 15.0335 56.3266 15.3002C55.8599 18.3669 54.3266 21.8002 51.7266 25.6002C51.0599 26.4002 50.4599 27.1002 49.9266 27.7002C49.4599 28.3002 48.9932 28.7669 48.5266 29.1002H48.8266C48.8932 29.1002 48.9599 29.1335 49.0266 29.2002C49.0932 29.2002 49.1599 29.2002 49.2266 29.2002C49.6266 29.2669 50.0932 29.3669 50.6266 29.5002C51.2266 29.5669 51.6932 29.6669 52.0266 29.8002C55.1599 31.2002 56.7266 33.0002 56.7266 35.2002V57.4002C56.7266 58.2002 56.8266 58.8002 57.0266 59.2002L58.0266 60.9002ZM23.8266 13.5002C23.4932 13.5669 23.1266 13.6002 22.7266 13.6002C22.3932 13.6002 22.0266 13.6002 21.6266 13.6002H21.3266L21.2266 13.5002C18.2266 13.5002 14.3932 12.7002 9.72656 11.1002C7.92656 10.5669 6.5599 10.3002 5.62656 10.3002C4.02656 10.3002 2.39323 11.1335 0.726562 12.8002V11.6002C0.726562 10.5335 1.1599 9.16686 2.02656 7.5002C2.89323 5.83353 4.4599 4.36686 6.72656 3.10019C8.99323 1.90019 11.2599 1.30019 13.5266 1.30019C16.5932 1.30019 20.4932 2.10019 25.2266 3.70019C27.6266 4.50019 29.2932 4.90019 30.2266 4.90019C32.0266 4.90019 33.7266 4.30019 35.3266 3.10019L35.9266 3.4002C35.7932 5.86686 34.3932 8.03353 31.7266 9.9002C30.6599 10.7669 29.5266 11.4669 28.3266 12.0002C27.1266 12.5335 25.8932 12.9669 24.6266 13.3002C24.2266 13.4335 23.9599 13.5002 23.8266 13.5002L24.1266 14.2002C22.7932 15.0669 22.1266 16.4002 22.1266 18.2002V47.2002C22.1266 51.2002 19.7932 54.7669 15.1266 57.9002C13.5266 59.0335 12.2599 59.6002 11.3266 59.6002L11.2266 59.7002H11.0266L10.8266 59.8002H9.52656L10.1266 59.1002C10.1266 58.9669 10.1932 58.8335 10.3266 58.7002L10.2266 58.8002L10.3266 58.6002V58.7002C10.3266 58.1669 10.4599 57.5335 10.7266 56.8002V40.2002H10.4266L10.2266 40.3002C8.62656 40.3002 7.82656 41.4002 7.82656 43.6002C7.42656 43.2002 6.99323 42.8002 6.52656 42.4002C6.12656 42.0002 5.79323 41.7002 5.52656 41.5002V41.6002C4.32656 40.6002 3.72656 38.7335 3.72656 36.0002C3.72656 31.6002 6.02656 29.1002 10.6266 28.5002V27.9002L10.5266 27.8002V27.3002C10.5266 23.6335 11.8932 20.5335 14.6266 18.0002C15.8266 16.8669 17.1599 15.9335 18.6266 15.2002C20.1599 14.4002 21.8932 13.8335 23.8266 13.5002ZM41.9266 56.6002C42.1932 56.8002 42.5932 57.0669 43.1266 57.4002C43.7266 57.7335 44.4932 58.2335 45.4266 58.9002V50.4002C45.3599 50.3335 45.2599 50.3002 45.1266 50.3002C45.0599 50.2335 45.0266 50.2002 45.0266 50.2002C44.4932 50.2002 44.1599 50.1669 44.0266 50.1002H43.8266L43.6266 50.0002H43.2266L43.1266 50.1002H42.6266L42.4266 50.2002H42.1266L41.9266 50.4002H41.7266L41.5266 50.5002V56.3002C41.6599 56.4335 41.7932 56.5335 41.9266 56.6002ZM45.0266 38.0002C45.2266 38.0002 45.3599 37.9669 45.4266 37.9002V35.3002C45.4266 34.1669 44.5266 33.6002 42.7266 33.6002L42.6266 33.3002H41.5266V38.0002C41.5266 37.8669 41.5932 37.8669 41.7266 38.0002H41.8266C42.0932 38.2002 42.4599 38.3002 42.9266 38.3002H44.1266C44.1932 38.2335 44.3266 38.2002 44.5266 38.2002C44.5932 38.2002 44.6932 38.1669 44.8266 38.1002H44.9266L45.0266 38.0002ZM44.3266 46.3002C44.7266 46.4335 45.0932 46.5335 45.4266 46.6002V41.7002H45.3266L45.1266 41.9002H44.6266L44.5266 42.0002H42.9266C42.4599 42.0002 42.0932 41.9002 41.8266 41.7002H41.5266V46.6002C41.7932 46.4669 42.0599 46.3669 42.3266 46.3002H42.4266L42.6266 46.2002H43.8266C43.8932 46.2002 43.9599 46.2335 44.0266 46.3002C44.0932 46.3002 44.1932 46.3002 44.3266 46.3002ZM5.62656 41.7002L5.52656 41.6002C5.52656 41.6002 5.52656 41.6335 5.52656 41.7002C5.59323 41.7002 5.6599 41.7002 5.72656 41.7002H5.62656Z" fill="#0E66B2"/>
<path d="M99.7992 27.3002L99.6992 27.5002V28.0002L99.5992 28.2002C99.5992 28.6002 99.4659 29.0335 99.1992 29.5002C98.9325 29.9002 98.5992 30.4335 98.1992 31.1002C97.7326 31.6335 97.2992 32.1002 96.8992 32.5002C96.5659 32.9002 96.2326 33.1669 95.8992 33.3002V56.3002C95.8992 58.5669 96.7992 60.5335 98.5992 62.2002C96.0659 61.6669 94.0326 61.4002 92.4992 61.4002C84.8326 61.4002 78.5992 63.7002 73.7992 68.3002C70.1992 64.5669 66.9659 62.7002 64.0992 62.7002C63.5659 62.7002 62.8992 62.8002 62.0992 63.0002L60.0992 63.3002C60.3659 60.4335 61.9659 58.3002 64.8992 56.9002L64.7992 30.8002V30.9002L64.4992 30.0002C64.4326 30.0002 64.3992 29.9335 64.3992 29.8002L64.1992 29.6002V29.4002L64.0992 29.3002L63.8992 28.9002C63.7659 28.7669 63.6992 28.6002 63.6992 28.4002C63.6992 28.3335 63.6659 28.3002 63.5992 28.3002C63.5992 28.3002 63.5992 28.2335 63.5992 28.1002V28.4002L63.4992 28.2002V27.1002C64.2992 27.3669 65.1659 27.5669 66.0992 27.7002C67.0326 27.8335 68.0659 27.9002 69.1992 27.9002C76.2659 27.9002 82.6326 25.5669 88.2992 20.9002C90.4992 24.1669 92.4992 26.1335 94.2992 26.8002C95.2992 27.1335 96.0659 27.3002 96.5992 27.3002C96.9326 27.3002 97.3326 27.2335 97.7992 27.1002C98.2659 26.9002 98.9325 26.5335 99.7992 26.0002V27.3002ZM83.5992 58.5002C83.9992 58.5002 84.4992 58.4002 85.0992 58.2002H85.1992V34.0002C82.9325 33.9335 80.9992 32.6669 79.3992 30.2002C78.2659 30.8669 76.9992 31.2002 75.5992 31.2002V55.3002C76.1326 55.6335 76.7659 55.8002 77.4992 55.8002L77.8992 56.0002H77.7992C77.9992 56.0669 78.1992 56.1335 78.3992 56.2002C78.6659 56.2669 78.7992 56.3002 78.7992 56.3002C79.4659 56.5669 80.6659 57.5002 82.3992 59.1002L83.5992 58.5002Z" fill="#0E66B2"/>
<path d="M139.296 22.9002L139.696 23.4002C137.963 28.7335 134.296 34.2669 128.696 40.0002L138.096 39.8002C138.096 39.8669 138.063 40.0002 137.996 40.2002C137.996 40.4002 137.996 40.5335 137.996 40.6002C137.929 40.7335 137.896 40.9002 137.896 41.1002L137.796 41.2002V41.4002L137.596 41.6002V41.8002L137.496 42.0002C137.496 42.1335 137.463 42.2335 137.396 42.3002C137.396 42.3669 137.396 42.4335 137.396 42.5002V42.4002C137.329 42.6002 137.263 42.8669 137.196 43.2002C137.129 43.4669 137.096 43.5669 137.096 43.5002V60.5002C137.096 60.6335 137.129 60.7335 137.196 60.8002V61.1002L137.296 61.3002V61.2002C137.363 61.2669 137.396 61.3335 137.396 61.4002C137.396 61.4002 137.429 61.5669 137.496 61.9002L137.396 61.7002C137.263 61.5669 137.296 61.6669 137.496 62.0002C137.696 62.3335 137.896 62.6669 138.096 63.0002L138.496 63.8002C137.763 63.8002 137.329 63.7669 137.196 63.7002H137.296C137.229 63.6335 137.129 63.6002 136.996 63.6002C136.196 63.6002 135.529 63.6002 134.996 63.6002C134.463 63.5335 134.029 63.4002 133.696 63.2002C132.696 63.2002 132.096 63.1669 131.896 63.1002H131.296C126.229 63.1002 122.063 64.8335 118.796 68.3002L115.896 65.4002C115.363 64.9335 114.863 64.5669 114.396 64.3002C113.929 64.1002 113.396 64.0002 112.796 64.0002C112.396 63.8002 111.829 63.7002 111.096 63.7002C108.029 63.7002 105.896 65.1669 104.696 68.1002H101.796C102.329 65.7669 103.263 63.4002 104.596 61.0002C105.929 58.5335 107.729 55.9002 109.996 53.1002L110.396 52.7002C110.596 52.5002 110.829 52.2335 111.096 51.9002C111.429 51.5669 111.796 51.2002 112.196 50.8002L105.596 50.5002L106.296 49.8002L106.196 50.1002C106.796 49.3002 107.096 48.4669 107.096 47.6002L107.196 47.4002L107.096 30.0002C107.096 29.9335 107.063 29.9002 106.996 29.9002C106.996 29.8335 106.996 29.7669 106.996 29.7002V29.8002C106.929 29.7335 106.896 29.5669 106.896 29.3002L106.596 28.6002V28.5002C106.463 28.3669 106.396 28.1669 106.396 27.9002C106.396 27.6335 106.396 27.3335 106.396 27.0002C107.063 27.6002 107.763 27.9002 108.496 27.9002C108.963 28.1669 110.129 28.3002 111.996 28.3002C112.063 28.3669 112.396 28.4002 112.996 28.4002C116.063 28.4002 119.029 27.6335 121.896 26.1002C122.163 25.9669 123.496 24.7002 125.896 22.3002C128.029 24.7669 130.029 26.0002 131.896 26.0002C133.829 26.0002 135.396 25.0335 136.596 23.1002L139.296 22.9002ZM126.696 59.8002L126.796 59.7002V47.1002L126.596 46.9002H121.496L116.296 52.1002C115.829 52.5669 115.296 53.1669 114.696 53.9002C114.096 54.5669 113.363 55.3335 112.496 56.2002C113.296 56.0669 113.996 55.9669 114.596 55.9002C115.196 55.7669 115.663 55.7002 115.996 55.7002C119.463 55.7002 122.429 57.2335 124.896 60.3002L125.296 60.1002C125.296 60.1002 125.363 60.1002 125.496 60.1002C125.696 60.0335 125.963 59.9335 126.296 59.8002H126.696ZM125.096 38.5002C127.363 36.1002 129.029 34.3335 130.096 33.2002C128.963 33.6669 127.763 33.9002 126.496 33.9002C124.563 33.9002 122.363 32.9335 119.896 31.0002C119.696 31.0669 119.563 31.1335 119.496 31.2002H119.096C118.696 31.4002 118.329 31.5002 117.996 31.5002V44.1002H119.096C119.629 43.7669 120.363 43.1335 121.296 42.2002C122.296 41.2669 123.563 40.0335 125.096 38.5002Z" fill="#0E66B2"/>
<path d="M166.538 59.7002L156.837 68.3002C153.237 64.9002 149.771 63.2002 146.438 63.2002C144.837 63.2002 143.637 63.8002 142.837 65.0002V63.6002C142.837 63.3335 143.137 62.5335 143.738 61.2002C144.671 59.0669 145.971 57.5669 147.637 56.7002V31.6002H145.837C145.371 31.8669 144.838 32.0669 144.238 32.2002C144.171 32.2669 143.871 32.3669 143.337 32.5002L143.137 32.7002H142.938L141.837 33.3002C141.837 33.0335 141.837 32.8002 141.837 32.6002C141.837 32.3335 141.871 32.1335 141.938 32.0002V31.7002L142.038 31.5002C142.038 31.2335 142.071 31.0335 142.137 30.9002V30.1002C142.137 29.9002 142.137 29.7002 142.137 29.5002C142.204 29.3002 142.271 29.0669 142.337 28.8002V28.2002L142.238 27.9002V26.9002C141.971 26.1669 141.837 24.9335 141.837 23.2002C142.704 23.6669 143.438 24.0002 144.038 24.2002C144.638 24.4002 145.104 24.5335 145.438 24.6002C145.571 24.5335 146.037 24.5002 146.837 24.5002H147.637V19.9002L147.538 19.7002V18.7002C147.538 18.7002 147.504 18.6669 147.438 18.6002C147.438 18.4669 147.404 18.3335 147.337 18.2002C147.271 18.0669 147.204 17.9335 147.137 17.8002C147.137 17.6002 147.104 17.4335 147.038 17.3002V17.2002C146.904 17.0669 146.837 16.7669 146.837 16.3002L147.538 16.1002L147.637 16.3002H148.137V16.4002C152.004 16.4002 155.671 14.2669 159.137 10.0002V11.4002L159.038 11.5002C158.971 11.6335 158.904 11.8335 158.837 12.1002C158.837 12.3669 158.771 12.7002 158.637 13.1002C158.637 12.9669 158.637 13.0002 158.637 13.2002C158.637 13.4002 158.604 13.5669 158.538 13.7002C158.271 14.8335 158.137 15.6669 158.137 16.2002V24.5002H161.337L161.538 24.6002C162.671 24.6002 163.904 24.1335 165.238 23.2002C165.238 23.2669 165.204 23.4669 165.137 23.8002C165.137 24.0669 165.137 24.2335 165.137 24.3002C165.071 24.4335 165.038 24.6335 165.038 24.9002C164.838 25.3002 164.738 26.1669 164.738 27.5002H164.838C164.838 28.9669 165.038 30.9002 165.438 33.3002L164.238 32.7002L164.137 32.6002H164.038C163.304 32.3335 162.438 32.1335 161.438 32.0002C160.504 31.8002 159.404 31.6669 158.137 31.6002V55.5002C158.604 55.9669 159.171 56.2002 159.837 56.2002C159.837 56.2002 159.938 56.2335 160.137 56.3002C160.337 56.3669 160.471 56.4335 160.538 56.5002C160.738 56.7002 160.938 56.8002 161.137 56.8002C161.204 56.8669 161.271 56.9335 161.337 57.0002C161.471 57.0002 161.571 57.0335 161.637 57.1002H161.538C161.738 57.2335 162.004 57.4335 162.337 57.7002C162.671 57.9002 163.038 58.1335 163.438 58.4002L164.438 57.3002L166.538 59.7002Z" fill="#0E66B2"/>
<path d="M208.002 27.3002L207.902 27.5002V28.0002L207.802 28.2002C207.802 28.6002 207.669 29.0335 207.402 29.5002C207.136 29.9002 206.802 30.4335 206.402 31.1002C205.936 31.6335 205.502 32.1002 205.102 32.5002C204.769 32.9002 204.436 33.1669 204.102 33.3002V56.3002C204.102 58.5669 205.002 60.5335 206.802 62.2002C204.269 61.6669 202.236 61.4002 200.702 61.4002C193.036 61.4002 186.802 63.7002 182.002 68.3002C178.402 64.5669 175.169 62.7002 172.302 62.7002C171.769 62.7002 171.102 62.8002 170.302 63.0002L168.302 63.3002C168.569 60.4335 170.169 58.3002 173.102 56.9002L173.002 30.8002V30.9002L172.702 30.0002C172.636 30.0002 172.602 29.9335 172.602 29.8002L172.402 29.6002V29.4002L172.302 29.3002L172.102 28.9002C171.969 28.7669 171.902 28.6002 171.902 28.4002C171.902 28.3335 171.869 28.3002 171.802 28.3002C171.802 28.3002 171.802 28.2335 171.802 28.1002V28.4002L171.702 28.2002V27.1002C172.502 27.3669 173.369 27.5669 174.302 27.7002C175.236 27.8335 176.269 27.9002 177.402 27.9002C184.469 27.9002 190.836 25.5669 196.502 20.9002C198.702 24.1669 200.702 26.1335 202.502 26.8002C203.502 27.1335 204.269 27.3002 204.802 27.3002C205.136 27.3002 205.536 27.2335 206.002 27.1002C206.469 26.9002 207.136 26.5335 208.002 26.0002V27.3002ZM191.802 58.5002C192.202 58.5002 192.702 58.4002 193.302 58.2002H193.402V34.0002C191.136 33.9335 189.202 32.6669 187.602 30.2002C186.469 30.8669 185.202 31.2002 183.802 31.2002V55.3002C184.336 55.6335 184.969 55.8002 185.702 55.8002L186.102 56.0002H186.002C186.202 56.0669 186.402 56.1335 186.602 56.2002C186.869 56.2669 187.002 56.3002 187.002 56.3002C187.669 56.5669 188.869 57.5002 190.602 59.1002L191.802 58.5002Z" fill="#0E66B2"/>
<path d="M252.899 58.0002L244.299 68.4002C243.366 68.3335 242.433 68.1002 241.499 67.7002C240.566 67.3002 239.666 66.7669 238.799 66.1002C237.199 64.8335 236.399 63.2669 236.399 61.4002V35.2002C236.133 35.2002 235.933 35.1669 235.799 35.1002H235.599L235.499 35.0002L235.099 34.8002H235.199C234.133 34.5335 233.266 34.1669 232.599 33.7002C231.933 33.2335 231.333 32.6335 230.799 31.9002L226.699 35.2002V56.2002C227.499 56.5335 228.233 56.8669 228.899 57.2002C229.566 57.5335 230.099 57.8669 230.499 58.2002C231.233 58.6669 231.866 59.2002 232.399 59.8002C232.999 60.3335 233.533 60.9002 233.999 61.5002L224.699 68.2002C221.099 64.8002 217.433 63.1002 213.699 63.1002H213.399L213.299 63.2002H212.799L212.699 63.3002H212.299L212.199 63.4002H211.199C211.733 60.8002 213.299 58.7335 215.899 57.2002V34.7002C214.699 32.7002 213.033 31.7002 210.899 31.7002L210.699 31.6002H210.199V30.9002L220.399 20.7002C221.466 21.6335 222.366 22.5002 223.099 23.3002C223.899 24.0335 224.533 24.7669 224.999 25.5002C226.066 27.1669 226.633 28.9335 226.699 30.8002L238.499 20.9002C241.299 24.7669 243.466 26.7002 244.999 26.7002C245.733 26.7002 247.433 26.1335 250.099 25.0002V26.4002L249.999 26.6002V27.6002L249.899 27.8002C249.899 29.4002 248.999 31.1002 247.199 32.9002V56.2002C247.199 57.5335 248.199 58.2002 250.199 58.2002H250.599L250.699 58.1002H251.499L251.599 58.0002H252.899Z" fill="#0E66B2"/>
<path d="M343.687 3.70019L344.287 4.10019C344.087 4.96686 343.687 5.86686 343.087 6.80019C342.553 7.73353 341.92 8.60019 341.187 9.4002C340.453 10.2002 339.653 10.9335 338.787 11.6002C337.92 12.2002 337.053 12.6669 336.187 13.0002V50.6002C337.453 49.6669 339.353 47.4669 341.887 44.0002C341.887 54.6669 336.42 62.0669 325.487 66.2002C322.087 67.4669 318.987 68.1002 316.187 68.1002C311.787 68.1002 308.187 67.5669 305.387 66.5002C300.52 64.5669 296.72 61.6335 293.987 57.7002C291.253 53.7669 289.887 49.1669 289.887 43.9002V43.5002L289.987 43.4002C289.987 36.2669 292.253 29.6335 296.787 23.5002C300.12 18.7002 304.253 16.0002 309.187 15.4002C303.053 22.2669 299.987 28.7335 299.987 34.8002C299.987 38.0002 300.42 40.9335 301.287 43.6002C302.153 46.2002 303.453 48.5669 305.187 50.7002V50.6002C308.987 55.2002 313.853 57.5002 319.787 57.5002H319.887L320.087 57.4002C324.82 57.4002 328.953 56.1669 332.487 53.7002V14.5002H332.287C331.753 14.7002 331.32 14.8002 330.987 14.8002C330.387 15.0669 328.787 15.2002 326.187 15.2002L326.087 15.3002H325.787C324.453 15.3002 323.187 15.2669 321.987 15.2002C320.853 15.1335 319.787 15.0335 318.787 14.9002C318.52 14.8335 318.087 14.7669 317.487 14.7002C316.953 14.5669 316.22 14.4335 315.287 14.3002C314.553 14.1669 313.72 14.0335 312.787 13.9002C311.853 13.7002 310.787 13.5002 309.587 13.3002C306.053 12.6335 303.02 12.3002 300.487 12.3002H299.987C299.72 12.3669 298.953 12.4002 297.687 12.4002C294.687 12.7335 292.187 14.2669 290.187 17.0002V15.7002C290.187 14.1669 290.787 12.4002 291.987 10.4002C295.387 5.06686 300.62 2.36686 307.687 2.30019L308.187 2.10019C310.387 2.23353 313.987 2.63353 318.987 3.30019L324.487 4.3002C324.82 4.43353 325.287 4.56686 325.887 4.70019C326.553 4.83353 327.387 4.96686 328.387 5.10019L330.487 5.3002L332.587 5.60019H335.087L335.187 5.50019H336.587L336.687 5.60019C339.42 5.60019 341.753 4.96686 343.687 3.70019ZM325.187 43.3002C325.187 45.9002 323.887 48.4002 321.287 50.8002C318.82 53.0669 316.22 54.2002 313.487 54.2002H312.887V54.1002H311.987L312.687 53.3002V53.0002L312.887 52.9002C312.887 52.7669 312.92 52.6669 312.987 52.6002L313.287 52.3002C313.287 52.0335 313.453 51.7335 313.787 51.4002V51.1002L313.887 51.0002V50.8002L313.987 50.7002V25.9002L311.087 27.3002V23.2002L323.087 16.2002H325.187V43.3002Z" fill="#0E66B2"/>
<path d="M386.127 27.3002L386.027 27.5002V28.0002L385.927 28.2002C385.927 28.6002 385.794 29.0335 385.527 29.5002C385.261 29.9002 384.927 30.4335 384.527 31.1002C384.061 31.6335 383.627 32.1002 383.227 32.5002C382.894 32.9002 382.561 33.1669 382.227 33.3002V56.3002C382.227 58.5669 383.127 60.5335 384.927 62.2002C382.394 61.6669 380.361 61.4002 378.827 61.4002C371.161 61.4002 364.927 63.7002 360.127 68.3002C356.527 64.5669 353.294 62.7002 350.427 62.7002C349.894 62.7002 349.227 62.8002 348.427 63.0002L346.427 63.3002C346.694 60.4335 348.294 58.3002 351.227 56.9002L351.127 30.8002V30.9002L350.827 30.0002C350.761 30.0002 350.727 29.9335 350.727 29.8002L350.527 29.6002V29.4002L350.427 29.3002L350.227 28.9002C350.094 28.7669 350.027 28.6002 350.027 28.4002C350.027 28.3335 349.994 28.3002 349.927 28.3002C349.927 28.3002 349.927 28.2335 349.927 28.1002V28.4002L349.827 28.2002V27.1002C350.627 27.3669 351.494 27.5669 352.427 27.7002C353.361 27.8335 354.394 27.9002 355.527 27.9002C362.594 27.9002 368.961 25.5669 374.627 20.9002C376.827 24.1669 378.827 26.1335 380.627 26.8002C381.627 27.1335 382.394 27.3002 382.927 27.3002C383.261 27.3002 383.661 27.2335 384.127 27.1002C384.594 26.9002 385.261 26.5335 386.127 26.0002V27.3002ZM369.927 58.5002C370.327 58.5002 370.827 58.4002 371.427 58.2002H371.527V34.0002C369.261 33.9335 367.327 32.6669 365.727 30.2002C364.594 30.8669 363.327 31.2002 361.927 31.2002V55.3002C362.461 55.6335 363.094 55.8002 363.827 55.8002L364.227 56.0002H364.127C364.327 56.0669 364.527 56.1335 364.727 56.2002C364.994 56.2669 365.127 56.3002 365.127 56.3002C365.794 56.5669 366.994 57.5002 368.727 59.1002L369.927 58.5002Z" fill="#0E66B2"/>
<path d="M426.524 26.6002V28.1002L426.324 28.3002L426.224 28.5002C426.091 28.6335 425.958 28.7669 425.824 28.9002C425.758 29.0335 425.658 29.1669 425.524 29.3002V29.5002C425.124 30.0335 424.891 30.5002 424.824 30.9002V59.5002C424.824 59.6335 424.858 59.7335 424.924 59.8002V60.0002L425.024 60.3002V60.2002C425.091 60.2669 425.124 60.3335 425.124 60.4002C425.124 60.4002 425.158 60.5669 425.224 60.9002L425.324 61.0002C425.324 61.2669 425.358 61.4335 425.424 61.5002L425.524 61.7002V61.8002L425.624 61.9002C425.624 62.0335 425.658 62.1669 425.724 62.3002L426.424 63.7002C424.291 62.4335 421.858 61.8002 419.124 61.8002C413.458 61.8002 408.858 63.9669 405.324 68.3002L404.424 67.5002C404.291 67.3669 404.158 67.2335 404.024 67.1002C403.958 66.9669 403.858 66.8335 403.724 66.7002C400.991 63.5002 397.758 61.9002 394.024 61.9002C391.824 61.9002 389.858 62.5335 388.124 63.8002C388.724 60.2002 390.524 57.6335 393.524 56.1002V32.2002C393.524 31.1335 392.858 29.6669 391.524 27.8002H392.724L392.924 27.9002H394.124L394.324 28.0002H394.624C399.558 28.0002 403.691 26.8335 407.024 24.5002L402.824 19.9002C401.691 18.7002 400.524 17.5335 399.324 16.4002C398.124 15.2669 396.924 14.2335 395.724 13.3002C395.458 13.1002 395.058 12.8335 394.524 12.5002C394.058 12.1002 393.524 11.6335 392.924 11.1002C392.058 10.3669 390.558 8.76686 388.424 6.30019V4.90019C389.024 5.50019 389.624 5.80019 390.224 5.80019C390.291 5.86686 390.658 5.90019 391.324 5.90019C393.058 5.90019 394.791 5.66686 396.524 5.2002C398.258 4.73353 399.958 4.06686 401.624 3.20019C402.091 4.60019 402.958 6.16686 404.224 7.90019V7.80019L406.724 10.3002L417.124 20.6002C417.258 20.8669 417.324 20.9669 417.324 20.9002L419.624 23.3002C419.891 23.5669 420.191 23.8669 420.524 24.2002C420.858 24.5335 421.258 24.9002 421.724 25.3002C421.858 25.4335 421.991 25.5669 422.124 25.7002C422.324 25.8335 422.491 25.9669 422.624 26.1002H422.524C423.591 27.1002 424.658 27.6002 425.724 27.6002L426.524 26.6002ZM413.724 58.7002L413.824 58.6002V31.2002L409.824 27.1002C408.024 28.8335 406.024 29.9335 403.824 30.4002V54.8002C403.824 54.8002 404.058 54.8669 404.524 55.0002C404.724 55.0669 405.058 55.1669 405.524 55.3002C405.991 55.3669 406.658 55.5335 407.524 55.8002C409.391 56.7335 410.991 57.8669 412.324 59.2002L412.524 59.0002H412.624L412.824 58.8002H413.124L413.224 58.7002H413.724ZM425.524 29.6002V29.5002C425.524 29.4335 425.591 29.3335 425.724 29.2002L425.524 29.6002ZM425.424 29.4002C425.358 29.4669 425.358 29.5002 425.424 29.5002V29.3002V29.4002Z" fill="#0E66B2"/>
<path d="M466.356 59.1002L460.056 67.9002H459.956L459.856 68.0002H459.456L459.356 68.1002H459.056L458.956 68.2002H458.156C456.556 68.2002 454.89 67.4669 453.156 66.0002C452.49 65.3335 451.89 64.7002 451.356 64.1002C450.823 63.5669 450.39 62.9669 450.056 62.3002L443.256 68.1002H442.656C439.79 68.1002 436.99 67.2669 434.256 65.6002C432.923 64.6669 431.823 63.6669 430.956 62.6002C430.156 61.5335 429.59 60.3335 429.256 59.0002C428.99 58.1335 428.856 56.9002 428.856 55.3002C428.856 50.0335 431.89 45.3335 437.956 41.2002C437.823 41.0002 437.523 40.6669 437.056 40.2002C436.656 39.6669 436.023 38.9335 435.156 38.0002C434.623 37.4002 434.023 36.7335 433.356 36.0002C432.756 35.2002 432.056 34.3335 431.256 33.4002H431.356C430.69 33.0002 429.656 32.0335 428.256 30.5002C433.056 28.7669 436.89 26.1669 439.756 22.7002L440.256 23.3002L440.356 23.5002C440.69 23.8335 441.156 24.4335 441.756 25.3002C442.356 26.1002 442.823 26.7669 443.156 27.3002V27.2002C444.29 28.6669 445.456 29.4002 446.656 29.4002H446.456L446.956 29.2002C447.09 29.3335 447.223 29.4002 447.356 29.4002C448.69 29.4002 450.723 27.6002 453.456 24.0002L453.556 23.8002C453.69 23.6002 453.79 23.4335 453.856 23.3002C453.99 23.1669 454.323 22.8335 454.856 22.3002C454.856 22.9002 454.89 23.2335 454.956 23.3002C454.89 23.3002 454.923 23.4335 455.056 23.7002C455.256 23.9002 455.49 24.1335 455.756 24.4002V24.3002C457.49 26.4335 459.156 27.5002 460.756 27.5002C461.49 27.5002 462.756 27.2002 464.556 26.6002V27.4002C464.556 30.2669 463.123 32.5335 460.256 34.2002V54.9002C460.256 56.1669 460.723 57.2002 461.656 58.0002C462.59 58.7335 463.756 59.1335 465.156 59.2002L465.256 59.1002H466.356ZM447.256 59.5002C448.323 59.5002 449.123 59.3002 449.656 58.9002H449.756L449.856 58.8002V35.0002C448.923 35.0002 447.923 34.3002 446.856 32.9002C445.39 34.7669 443.556 35.7002 441.356 35.7002L441.156 35.8002H439.056C438.923 35.8002 438.723 35.8002 438.456 35.8002C438.256 35.8002 438.056 35.7669 437.856 35.7002L449.056 48.4002L446.556 50.6002L440.356 43.9002C439.69 45.1669 439.223 46.3002 438.956 47.3002C438.69 48.2335 438.556 49.0669 438.556 49.8002C438.556 52.4002 439.39 54.6335 441.056 56.5002C442.856 58.5002 444.923 59.5002 447.256 59.5002Z" fill="#0E66B2"/>
<path d="M509.105 27.3002L509.005 27.5002V28.0002L508.905 28.1002C508.905 28.5669 508.738 29.1002 508.405 29.7002C508.138 30.2335 507.805 30.7669 507.405 31.3002C507.005 31.8335 506.538 32.3335 506.005 32.8002C505.471 33.2002 504.971 33.5002 504.505 33.7002V60.4002C504.505 63.8669 501.605 66.2669 495.805 67.6002C495.005 67.7335 494.238 67.8335 493.505 67.9002C492.838 68.0335 492.238 68.1002 491.705 68.1002C491.438 68.1002 491.238 68.1002 491.105 68.1002C491.038 68.1002 490.738 68.1335 490.205 68.2002C483.138 68.7335 479.605 70.3335 479.605 73.0002C479.605 74.0002 480.238 74.5002 481.505 74.5002C482.105 74.5002 484.138 73.5335 487.605 71.6002C490.938 69.7335 493.938 68.8002 496.605 68.8002C498.938 68.8002 500.938 69.5335 502.605 71.0002C504.271 72.4669 505.105 74.3002 505.105 76.5002C505.105 78.4335 504.371 80.0335 502.905 81.3002C501.505 82.5669 499.771 83.2002 497.705 83.2002C495.838 83.2002 494.638 82.9335 494.105 82.4002V79.0002C495.171 79.6002 496.205 79.9002 497.205 79.9002H497.305L497.505 79.8002H497.805C498.205 79.8002 498.671 79.6335 499.205 79.3002C499.738 78.9669 500.005 78.6002 500.005 78.2002C500.005 77.5335 499.571 77.2002 498.705 77.2002L498.505 77.1002H498.405C496.871 77.1002 494.805 77.9002 492.205 79.5002C490.671 80.5002 489.338 81.2669 488.205 81.8002C487.138 82.3335 486.305 82.6669 485.705 82.8002C485.371 82.8669 484.971 82.9002 484.505 82.9002C484.038 82.9669 483.438 83.0002 482.705 83.0002C481.571 83.0002 480.471 82.7669 479.405 82.3002C478.338 81.9002 477.405 81.3335 476.605 80.6002C475.805 79.8669 475.138 79.0002 474.605 78.0002C474.138 77.0669 473.905 76.0335 473.905 74.9002V74.4002H474.005C474.138 71.0002 475.838 68.5002 479.105 66.9002C477.771 66.3002 476.571 65.4669 475.505 64.4002C473.905 62.9335 473.105 61.4335 473.105 59.9002V33.8002C473.105 32.2669 471.505 31.3335 468.305 31.0002V30.3002L479.005 21.9002C479.471 22.1669 479.971 22.5335 480.505 23.0002C481.038 23.4669 481.538 24.0002 482.005 24.6002C483.138 26.1335 483.705 27.2669 483.705 28.0002L483.805 28.2002V28.8002L483.905 28.9002V32.8002L498.905 22.7002C500.971 25.5002 503.238 26.9002 505.705 26.9002H505.905L506.005 26.8002C507.138 26.8002 508.171 26.4335 509.105 25.7002V27.3002ZM489.505 64.2002C490.438 64.2002 491.338 64.0335 492.205 63.7002C493.071 63.3002 493.505 62.7335 493.505 62.0002V34.7002C493.238 34.6335 492.971 34.5335 492.705 34.4002C492.438 34.2669 492.138 34.1335 491.805 34.0002L490.105 33.2002L484.005 37.4002V61.4002C484.005 62.7335 485.171 63.6335 487.505 64.1002H487.905C487.971 64.1002 488.038 64.1002 488.105 64.1002C488.171 64.1669 488.271 64.2002 488.405 64.2002C488.471 64.2002 488.505 64.2002 488.505 64.2002C488.571 64.2669 488.638 64.3002 488.705 64.3002H489.305L489.505 64.2002Z" fill="#0E66B2"/>
</svg>