<svg width="279" height="45" viewBox="0 0 279 45" fill="none" xmlns="http://www.w3.org/2000/svg">
<path d="M31.4465 32.9096L31.227 33.2349C31.0806 33.2349 30.9526 33.2169 30.8428 33.1807H30.8977C30.8611 33.1807 30.8245 33.1807 30.7879 33.1807C30.7879 33.1446 30.7696 33.1265 30.733 33.1265C30.4403 33.1265 30.2025 33.1265 30.0196 33.1265C29.8732 33.0904 29.7452 33.0542 29.6354 33.0181H28.8122C28.739 33.0542 28.5012 33.0723 28.0988 33.0723C28.0988 33.0723 28.0622 33.0904 27.989 33.1265C27.9158 33.1265 27.8244 33.1446 27.7146 33.1807C27.4951 33.253 27.2024 33.3253 26.8365 33.3976C26.5072 33.4699 26.1048 33.5422 25.6292 33.6145C23.3973 34.3373 21.4582 35.4398 19.8118 36.9217C17.2142 35.3675 15.3299 34.5904 14.1591 34.5904C14.086 34.5904 13.9579 34.5904 13.775 34.5904C13.6286 34.5542 13.464 34.5361 13.2811 34.5361C13.0981 34.5 12.9335 34.4819 12.7871 34.4819C12.6408 34.4819 12.5127 34.4819 12.403 34.4819H12.0737C9.03697 34.4819 6.21978 35.3133 3.62211 36.9759C4.7563 34.3374 6.53077 32.3313 8.94551 30.9578C11.3237 29.512 13.7933 28.7892 16.3544 28.7892C17.9642 28.7892 19.2996 29.0241 20.3606 29.494V14.4759H22.3912V15.994C23.6718 15.5964 24.5864 14.3675 25.1352 12.3072C25.1352 12.2349 25.1352 12.1627 25.1352 12.0904C25.1718 12.0181 25.2084 11.9277 25.245 11.8193C25.2816 11.7108 25.2999 11.6024 25.2999 11.494C25.2999 11.3494 25.3182 11.1867 25.3548 11.006V10.8434C25.3548 7.95181 24.2388 5.96386 22.007 4.87952L18.8789 6.99398V23.1506C18.8789 24.3795 18.1288 25.6446 16.6288 26.9458C15.0189 28.1386 13.5555 28.7349 12.2383 28.7349L12.0737 28.3012C12.0737 28.3012 12.1103 28.2651 12.1835 28.1928C12.2566 28.0843 12.403 27.9036 12.6225 27.6506C12.6225 27.5422 12.6591 27.3434 12.7323 27.0542C12.7688 26.9096 12.8054 26.747 12.842 26.5663C12.8786 26.3855 12.8969 26.3133 12.8969 26.3494L12.9518 26.241V9.70482C13.025 9.48795 13.1164 9.21687 13.2262 8.89157C13.3725 8.56627 13.4091 8.53012 13.3359 8.78313C13.5555 8.3494 13.8482 8.00602 14.214 7.75301V7.69879L25.5743 0C28.9037 1.22891 30.5684 3.61446 30.5684 7.15662V7.37349C30.5684 7.77108 30.5501 8.04217 30.5135 8.18675C30.2574 9.8494 29.4159 11.7108 27.989 13.7711C27.6231 14.2048 27.2939 14.5843 27.0012 14.9096C26.7451 15.2349 26.4889 15.488 26.2328 15.6687H26.3975C26.4341 15.6687 26.4707 15.6867 26.5072 15.7229C26.5438 15.7229 26.5804 15.7229 26.617 15.7229C26.8365 15.759 27.0926 15.8133 27.3853 15.8855C27.7146 15.9217 27.9707 15.9759 28.1537 16.0482C29.8732 16.8072 30.733 17.7831 30.733 18.9759V31.0121C30.733 31.4458 30.7879 31.7711 30.8977 31.988L31.4465 32.9096ZM12.6774 7.21084C12.4944 7.24699 12.2932 7.26506 12.0737 7.26506C11.8908 7.26506 11.6895 7.26506 11.47 7.26506H11.3054L11.2505 7.21084C9.60407 7.21084 7.50032 6.77711 4.93924 5.90964C3.95139 5.62048 3.20136 5.4759 2.68914 5.4759C1.81105 5.4759 0.914674 5.92771 0 6.83132V6.18072C0 5.60241 0.237815 4.86145 0.713445 3.95783C1.18908 3.05422 2.04887 2.25904 3.29282 1.57229C4.53678 0.921686 5.78074 0.596384 7.02469 0.596384C8.70769 0.596384 10.848 1.03012 13.4457 1.89759C14.7628 2.33132 15.6775 2.54819 16.1897 2.54819C17.1776 2.54819 18.1105 2.22289 18.9886 1.57229L19.3179 1.73494C19.2447 3.07229 18.4764 4.24699 17.0129 5.25904C16.4275 5.72892 15.8056 6.10843 15.147 6.39759C14.4884 6.68675 13.8116 6.92169 13.1164 7.10241C12.8969 7.1747 12.7505 7.21084 12.6774 7.21084L12.842 7.59036C12.1103 8.06024 11.7444 8.78313 11.7444 9.75904V25.4819C11.7444 27.6506 10.4639 29.5843 7.90278 31.2831C7.02469 31.8976 6.32954 32.2048 5.81732 32.2048L5.76244 32.259H5.65268L5.54292 32.3133H4.82948L5.15876 31.9337C5.15876 31.8614 5.19535 31.7892 5.26852 31.7169L5.21364 31.7711L5.26852 31.6627V31.7169C5.26852 31.4277 5.34169 31.0843 5.48804 30.6867V21.6867H5.3234L5.21364 21.741C4.33555 21.741 3.89651 22.3374 3.89651 23.5301C3.67699 23.3133 3.43917 23.0964 3.18306 22.8795C2.96354 22.6626 2.78061 22.5 2.63426 22.3916V22.4458C1.97569 21.9036 1.64641 20.8916 1.64641 19.4096C1.64641 17.0241 2.90866 15.6687 5.43316 15.3434V15.0181L5.37828 14.9639V14.6928C5.37828 12.7048 6.12831 11.0241 7.62838 9.6506C8.28694 9.03614 9.01868 8.53012 9.82359 8.13253C10.6651 7.6988 11.6164 7.39157 12.6774 7.21084ZM22.6107 30.5783C22.7571 30.6867 22.9766 30.8313 23.2693 31.0121C23.5986 31.1928 24.0193 31.4639 24.5315 31.8253V27.2169C24.495 27.1807 24.4401 27.1626 24.3669 27.1626C24.3303 27.1265 24.312 27.1084 24.312 27.1084C24.0193 27.1084 23.8364 27.0904 23.7632 27.0542H23.6535L23.5437 27H23.3242L23.2693 27.0542H22.9949L22.8851 27.1084H22.7205L22.6107 27.2169H22.501L22.3912 27.2711V30.4157C22.4644 30.488 22.5376 30.5422 22.6107 30.5783ZM24.312 20.494C24.4218 20.494 24.495 20.4759 24.5315 20.4398V19.0301C24.5315 18.4157 24.0376 18.1084 23.0498 18.1084L22.9949 17.9458H22.3912V20.494C22.3912 20.4217 22.4278 20.4217 22.501 20.494H22.5558C22.7022 20.6024 22.9034 20.6566 23.1595 20.6566H23.8181C23.8547 20.6205 23.9279 20.6024 24.0376 20.6024C24.0742 20.6024 24.1291 20.5843 24.2023 20.5482H24.2571L24.312 20.494ZM23.9279 24.994C24.1474 25.0663 24.3486 25.1205 24.5315 25.1566V22.5H24.4767L24.3669 22.6084H24.0925L24.0376 22.6627H23.1595C22.9034 22.6627 22.7022 22.6084 22.5558 22.5H22.3912V25.1566C22.5376 25.0843 22.6839 25.0301 22.8303 24.994H22.8851L22.9949 24.9398H23.6535C23.69 24.9398 23.7266 24.9578 23.7632 24.994C23.7998 24.994 23.8547 24.994 23.9279 24.994ZM2.68914 22.5L2.63426 22.4458C2.63426 22.4458 2.63426 22.4639 2.63426 22.5C2.67085 22.5 2.70743 22.5 2.74402 22.5H2.68914Z" fill="white"/>
<path d="M54.3715 14.6928L54.3166 14.8012V15.0723L54.2617 15.1807C54.2617 15.3976 54.1885 15.6325 54.0422 15.8855C53.8959 16.1024 53.7129 16.3916 53.4934 16.753C53.2373 17.0422 52.9995 17.2952 52.7799 17.512C52.597 17.7289 52.4141 17.8735 52.2311 17.9458V30.4157C52.2311 31.6446 52.7251 32.7108 53.7129 33.6145C52.3226 33.3253 51.2067 33.1807 50.3652 33.1807C46.1577 33.1807 42.7368 34.4277 40.1026 36.9217C38.1269 34.8976 36.3524 33.8855 34.7792 33.8855C34.4865 33.8855 34.1206 33.9398 33.6816 34.0482L32.584 34.2108C32.7303 32.6566 33.6084 31.5 35.2182 30.741L35.1633 16.5904V16.6446L34.9987 16.1566C34.9621 16.1566 34.9438 16.1205 34.9438 16.0482L34.8341 15.9398V15.8313L34.7792 15.7771L34.6694 15.5602C34.5962 15.488 34.5597 15.3976 34.5597 15.2892C34.5597 15.253 34.5414 15.2349 34.5048 15.2349C34.5048 15.2349 34.5048 15.1988 34.5048 15.1265V15.2892L34.4499 15.1807V14.5843C34.8889 14.7289 35.3646 14.8373 35.8768 14.9096C36.389 14.9819 36.9561 15.0181 37.5781 15.0181C41.4563 15.0181 44.9503 13.753 48.0602 11.2229C49.2676 12.994 50.3652 14.0602 51.3531 14.4217C51.9019 14.6024 52.3226 14.6928 52.6153 14.6928C52.7982 14.6928 53.0178 14.6566 53.2739 14.5843C53.53 14.4759 53.8959 14.2771 54.3715 13.988V14.6928ZM45.4809 31.6084C45.7004 31.6084 45.9748 31.5542 46.3041 31.4458H46.3589V18.3253C45.115 18.2892 44.054 17.6024 43.1759 16.2651C42.5539 16.6265 41.8587 16.8072 41.0904 16.8072V29.8735C41.3831 30.0542 41.7307 30.1446 42.1332 30.1446L42.3527 30.253H42.2978C42.4076 30.2892 42.5173 30.3253 42.6271 30.3614C42.7734 30.3976 42.8466 30.4157 42.8466 30.4157C43.2125 30.5602 43.871 31.0663 44.8223 31.9337L45.4809 31.6084Z" fill="white"/>
<path d="M76.0475 12.3072L76.267 12.5783C75.3158 15.4699 73.3035 18.4699 70.2302 21.5783L75.389 21.4699C75.389 21.506 75.3707 21.5783 75.3341 21.6867C75.3341 21.7952 75.3341 21.8675 75.3341 21.9036C75.2975 21.9759 75.2792 22.0663 75.2792 22.1747L75.2243 22.2289V22.3373L75.1146 22.4458V22.5542L75.0597 22.6627C75.0597 22.7349 75.0414 22.7892 75.0048 22.8253C75.0048 22.8614 75.0048 22.8976 75.0048 22.9337V22.8795C74.9682 22.9879 74.9316 23.1325 74.895 23.3133C74.8585 23.4578 74.8402 23.5121 74.8402 23.4759V32.6928C74.8402 32.7651 74.8585 32.8193 74.895 32.8554V33.0181L74.9499 33.1265V33.0723C74.9865 33.1084 75.0048 33.1446 75.0048 33.1807C75.0048 33.1807 75.0231 33.2711 75.0597 33.4518L75.0048 33.3434C74.9316 33.2711 74.9499 33.3253 75.0597 33.506C75.1694 33.6867 75.2792 33.8675 75.389 34.0482L75.6085 34.4819C75.206 34.4819 74.9682 34.4639 74.895 34.4277H74.9499C74.9133 34.3916 74.8585 34.3735 74.7853 34.3735C74.3462 34.3735 73.9804 34.3735 73.6877 34.3735C73.395 34.3373 73.1572 34.2651 72.9742 34.1566C72.4254 34.1566 72.0961 34.1386 71.9864 34.1024H71.6571C68.8765 34.1024 66.5898 35.0422 64.797 36.9217L63.2055 35.3494C62.9128 35.0964 62.6384 34.8976 62.3823 34.753C62.1262 34.6446 61.8335 34.5904 61.5042 34.5904C61.2847 34.4819 60.9737 34.4277 60.5713 34.4277C58.8883 34.4277 57.7175 35.2229 57.0589 36.8133H55.4674C55.7601 35.5482 56.2723 34.2651 57.004 32.9639C57.7358 31.6265 58.7236 30.1988 59.9676 28.6807L60.1871 28.4639C60.2969 28.3554 60.4249 28.2108 60.5713 28.0301C60.7542 27.8494 60.9554 27.6506 61.1749 27.4337L57.5528 27.2711L57.937 26.8916L57.8821 27.0542C58.2114 26.6205 58.376 26.1687 58.376 25.6988L58.4309 25.5904L58.376 16.1566C58.376 16.1205 58.3577 16.1024 58.3212 16.1024C58.3212 16.0663 58.3212 16.0301 58.3212 15.994V16.0482C58.2846 16.012 58.2663 15.9217 58.2663 15.7771L58.1016 15.3976V15.3434C58.0285 15.2711 57.9919 15.1627 57.9919 15.0181C57.9919 14.8735 57.9919 14.7108 57.9919 14.5301C58.3577 14.8554 58.7419 15.0181 59.1444 15.0181C59.4005 15.1627 60.0407 15.2349 61.0652 15.2349C61.1018 15.2711 61.2847 15.2892 61.614 15.2892C63.297 15.2892 64.9251 14.8735 66.4983 14.0422C66.6447 13.9699 67.3764 13.2831 68.6936 11.9819C69.8643 13.3193 70.9619 13.988 71.9864 13.988C73.0474 13.988 73.9072 13.4639 74.5658 12.4157L76.0475 12.3072ZM69.1326 32.3133L69.1875 32.259V25.4277L69.0777 25.3193H66.2788L63.425 28.1386C63.1689 28.3916 62.8762 28.7169 62.5469 29.1145C62.2177 29.4759 61.8152 29.8916 61.3396 30.3614C61.7786 30.2892 62.1628 30.2349 62.4921 30.1988C62.8213 30.1265 63.0775 30.0904 63.2604 30.0904C65.1629 30.0904 66.791 30.9217 68.1448 32.5843L68.3643 32.4759C68.3643 32.4759 68.4009 32.4759 68.474 32.4759C68.5838 32.4398 68.7301 32.3855 68.9131 32.3133H69.1326ZM68.2545 20.7651C69.4985 19.4639 70.4131 18.506 70.9985 17.8916C70.3766 18.1446 69.718 18.2711 69.0228 18.2711C67.9618 18.2711 66.7544 17.747 65.4007 16.6988C65.291 16.7349 65.2178 16.7711 65.1812 16.8072H64.9617C64.7422 16.9157 64.5409 16.9699 64.358 16.9699V23.8012H64.9617C65.2544 23.6205 65.6568 23.2771 66.1691 22.7711C66.7179 22.2651 67.413 21.5964 68.2545 20.7651Z" fill="white"/>
<path d="M90.9977 32.259L85.6743 36.9217C83.6986 35.0783 81.7961 34.1566 79.9668 34.1566C79.0887 34.1566 78.4301 34.4819 77.9911 35.1325V34.3735C77.9911 34.2289 78.1557 33.7952 78.485 33.0723C78.9972 31.9157 79.7106 31.1024 80.6253 30.6325V17.0241H79.6375C79.3814 17.1687 79.0887 17.2771 78.7594 17.3494C78.7228 17.3855 78.5582 17.4398 78.2655 17.512L78.1557 17.6205H78.0459L77.4423 17.9458C77.4423 17.8012 77.4423 17.6747 77.4423 17.5663C77.4423 17.4217 77.4606 17.3133 77.4971 17.241V17.0783L77.552 16.9699C77.552 16.8253 77.5703 16.7169 77.6069 16.6446V16.2108C77.6069 16.1024 77.6069 15.994 77.6069 15.8855C77.6435 15.7771 77.6801 15.6506 77.7167 15.506V15.1807L77.6618 15.0181V14.4759C77.5154 14.0783 77.4423 13.4096 77.4423 12.4699C77.9179 12.7229 78.3204 12.9036 78.6496 13.012C78.9789 13.1205 79.235 13.1928 79.418 13.2289C79.4911 13.1928 79.7472 13.1747 80.1863 13.1747H80.6253V10.6807L80.5704 10.5723V10.0301C80.5704 10.0301 80.5522 10.012 80.5156 9.9759C80.5156 9.90361 80.4973 9.83132 80.4607 9.75904C80.4241 9.68675 80.3875 9.61446 80.3509 9.54217C80.3509 9.43373 80.3326 9.34337 80.296 9.27108V9.21687C80.2229 9.14458 80.1863 8.98193 80.1863 8.72892L80.5704 8.62048L80.6253 8.72892H80.8997V8.78313C83.0218 8.78313 85.034 7.62651 86.9366 5.31325V6.07229L86.8817 6.1265C86.8451 6.19879 86.8085 6.30723 86.7719 6.45181C86.7719 6.59638 86.7353 6.77711 86.6622 6.99398C86.6622 6.92169 86.6622 6.93976 86.6622 7.04819C86.6622 7.15663 86.6439 7.24699 86.6073 7.31928C86.4609 7.93373 86.3878 8.38554 86.3878 8.6747V13.1747H88.1439L88.2537 13.2289C88.8757 13.2289 89.5525 12.9759 90.2843 12.4699C90.2843 12.506 90.266 12.6145 90.2294 12.7952C90.2294 12.9398 90.2294 13.0301 90.2294 13.0663C90.1928 13.1386 90.1745 13.247 90.1745 13.3916C90.0648 13.6084 90.0099 14.0783 90.0099 14.8012H90.0648C90.0648 15.5964 90.1745 16.6446 90.394 17.9458L89.7355 17.6205L89.6806 17.5663H89.6257C89.2233 17.4217 88.7476 17.3133 88.1988 17.241C87.6866 17.1325 87.0829 17.0602 86.3878 17.0241V29.9819C86.6439 30.2349 86.9549 30.3614 87.3207 30.3614C87.3207 30.3614 87.3756 30.3795 87.4854 30.4157C87.5951 30.4518 87.6683 30.488 87.7049 30.5241C87.8147 30.6325 87.9244 30.6867 88.0342 30.6867C88.0708 30.7229 88.1074 30.759 88.1439 30.7952C88.2171 30.7952 88.272 30.8133 88.3086 30.8494H88.2537C88.3635 30.9217 88.5098 31.0301 88.6927 31.1747C88.8757 31.2831 89.0769 31.4096 89.2964 31.5542L89.8452 30.9578L90.9977 32.259Z" fill="white"/>
<path d="M113.754 14.6928L113.699 14.8012V15.0723L113.644 15.1807C113.644 15.3976 113.571 15.6325 113.425 15.8855C113.278 16.1024 113.095 16.3916 112.876 16.753C112.62 17.0422 112.382 17.2952 112.162 17.512C111.979 17.7289 111.796 17.8735 111.613 17.9458V30.4157C111.613 31.6446 112.107 32.7108 113.095 33.6145C111.705 33.3253 110.589 33.1807 109.748 33.1807C105.54 33.1807 102.119 34.4277 99.4849 36.9217C97.5092 34.8976 95.7347 33.8855 94.1615 33.8855C93.8688 33.8855 93.5029 33.9398 93.0639 34.0482L91.9663 34.2108C92.1126 32.6566 92.9907 31.5 94.6005 30.741L94.5457 16.5904V16.6446L94.381 16.1566C94.3444 16.1566 94.3261 16.1205 94.3261 16.0482L94.2164 15.9398V15.8313L94.1615 15.7771L94.0517 15.5602C93.9786 15.488 93.942 15.3976 93.942 15.2892C93.942 15.253 93.9237 15.2349 93.8871 15.2349C93.8871 15.2349 93.8871 15.1988 93.8871 15.1265V15.2892L93.8322 15.1807V14.5843C94.2713 14.7289 94.7469 14.8373 95.2591 14.9096C95.7713 14.9819 96.3384 15.0181 96.9604 15.0181C100.839 15.0181 104.333 13.753 107.443 11.2229C108.65 12.994 109.748 14.0602 110.735 14.4217C111.284 14.6024 111.705 14.6928 111.998 14.6928C112.181 14.6928 112.4 14.6566 112.656 14.5843C112.912 14.4759 113.278 14.2771 113.754 13.988V14.6928ZM104.863 31.6084C105.083 31.6084 105.357 31.5542 105.686 31.4458H105.741V18.3253C104.497 18.2892 103.436 17.6024 102.558 16.2651C101.936 16.6265 101.241 16.8072 100.473 16.8072V29.8735C100.765 30.0542 101.113 30.1446 101.515 30.1446L101.735 30.253H101.68C101.79 30.2892 101.9 30.3253 102.009 30.3614C102.156 30.3976 102.229 30.4157 102.229 30.4157C102.595 30.5602 103.253 31.0663 104.205 31.9337L104.863 31.6084Z" fill="white"/>
<path d="M138.393 31.3374L133.674 36.9759C133.161 36.9398 132.649 36.8133 132.137 36.5964C131.625 36.3795 131.131 36.0904 130.655 35.7289C129.777 35.0422 129.338 34.1928 129.338 33.1807V18.9759C129.192 18.9759 129.082 18.9578 129.009 18.9217H128.899L128.844 18.8675L128.625 18.759H128.68C128.094 18.6145 127.619 18.4157 127.253 18.1627C126.887 17.9096 126.558 17.5843 126.265 17.1867L124.015 18.9759V30.3614C124.454 30.5422 124.856 30.7229 125.222 30.9036C125.588 31.0843 125.881 31.2651 126.1 31.4458C126.503 31.6988 126.85 31.988 127.143 32.3133C127.472 32.6024 127.765 32.9096 128.021 33.2349L122.917 36.8675C120.941 35.0241 118.929 34.1024 116.88 34.1024H116.716L116.661 34.1566H116.386L116.331 34.2108H116.112L116.057 34.2651H115.508C115.801 32.8554 116.661 31.7349 118.088 30.9036V18.7048C117.429 17.6205 116.514 17.0783 115.344 17.0783L115.234 17.0241H114.959V16.6446L120.557 11.1145C121.143 11.6205 121.637 12.0904 122.039 12.5241C122.478 12.9217 122.826 13.3193 123.082 13.7169C123.667 14.6205 123.978 15.5783 124.015 16.5904L130.491 11.2229C132.027 13.3193 133.216 14.3675 134.058 14.3675C134.46 14.3675 135.393 14.0602 136.857 13.4458V14.2048L136.802 14.3133V14.8554L136.747 14.9639C136.747 15.8313 136.253 16.753 135.265 17.7289V30.3614C135.265 31.0843 135.814 31.4458 136.912 31.4458H137.131L137.186 31.3916H137.625L137.68 31.3374H138.393Z" fill="white"/>
<path d="M188.218 1.89759L188.547 2.11446C188.437 2.58434 188.218 3.07229 187.889 3.57831C187.596 4.08434 187.248 4.55422 186.846 4.98795C186.443 5.42169 186.004 5.81928 185.529 6.18072C185.053 6.50602 184.578 6.75903 184.102 6.93976V27.3253C184.797 26.8193 185.84 25.6265 187.23 23.747C187.23 29.5301 184.23 33.5422 178.23 35.7831C176.364 36.4699 174.662 36.8133 173.126 36.8133C170.711 36.8133 168.735 36.5241 167.199 35.9458C164.528 34.8976 162.442 33.3072 160.942 31.1747C159.442 29.0422 158.692 26.5482 158.692 23.6928V23.4759L158.747 23.4217C158.747 19.5542 159.991 15.9578 162.479 12.6325C164.308 10.0301 166.577 8.56626 169.284 8.24096C165.918 11.9639 164.235 15.4699 164.235 18.759C164.235 20.494 164.473 22.0843 164.949 23.5301C165.424 24.9398 166.138 26.2229 167.089 27.3795V27.3253C169.174 29.8193 171.845 31.0663 175.102 31.0663H175.156L175.266 31.0121C177.864 31.0121 180.132 30.3434 182.071 29.006V7.75301H181.962C181.669 7.86144 181.431 7.91566 181.248 7.91566C180.919 8.06024 180.041 8.13253 178.614 8.13253L178.559 8.18675H178.394C177.663 8.18675 176.967 8.16867 176.309 8.13253C175.687 8.09639 175.102 8.04217 174.553 7.96988C174.406 7.93373 174.169 7.89759 173.839 7.86144C173.547 7.78916 173.144 7.71687 172.632 7.64458C172.229 7.57229 171.772 7.5 171.26 7.42771C170.748 7.31928 170.162 7.21084 169.504 7.10241C167.565 6.74096 165.9 6.56024 164.51 6.56024H164.235C164.089 6.59639 163.668 6.61446 162.973 6.61446C161.327 6.79518 159.955 7.62651 158.857 9.10843V8.40361C158.857 7.57229 159.186 6.61446 159.845 5.53012C161.711 2.63855 164.583 1.1747 168.461 1.13855L168.735 1.03012C169.943 1.10241 171.918 1.31928 174.662 1.68072L177.681 2.22289C177.864 2.29518 178.12 2.36747 178.449 2.43976C178.815 2.51205 179.272 2.58434 179.821 2.65662L180.974 2.76506L182.126 2.92771H183.498L183.553 2.87349H184.321L184.376 2.92771C185.876 2.92771 187.157 2.58434 188.218 1.89759ZM178.065 23.3675C178.065 24.7771 177.352 26.1325 175.925 27.4337C174.571 28.6626 173.144 29.2771 171.644 29.2771H171.315V29.2229H170.821L171.205 28.7892V28.6265L171.315 28.5723C171.315 28.5 171.333 28.4458 171.37 28.4096L171.534 28.247C171.534 28.1024 171.626 27.9398 171.809 27.759V27.5964L171.864 27.5422V27.4337L171.918 27.3795V13.9337L170.327 14.6928V12.4699L176.913 8.6747H178.065V23.3675Z" fill="white"/>
<path d="M211.51 14.6928L211.455 14.8012V15.0723L211.4 15.1807C211.4 15.3976 211.327 15.6325 211.18 15.8855C211.034 16.1024 210.851 16.3916 210.631 16.753C210.375 17.0422 210.138 17.2952 209.918 17.512C209.735 17.7289 209.552 17.8735 209.369 17.9458V30.4157C209.369 31.6446 209.863 32.7108 210.851 33.6145C209.461 33.3253 208.345 33.1807 207.503 33.1807C203.296 33.1807 199.875 34.4277 197.241 36.9217C195.265 34.8976 193.49 33.8855 191.917 33.8855C191.625 33.8855 191.259 33.9398 190.82 34.0482L189.722 34.2108C189.868 32.6566 190.746 31.5 192.356 30.741L192.301 16.5904V16.6446L192.137 16.1566C192.1 16.1566 192.082 16.1205 192.082 16.0482L191.972 15.9398V15.8313L191.917 15.7771L191.807 15.5602C191.734 15.488 191.698 15.3976 191.698 15.2892C191.698 15.253 191.679 15.2349 191.643 15.2349C191.643 15.2349 191.643 15.1988 191.643 15.1265V15.2892L191.588 15.1807V14.5843C192.027 14.7289 192.503 14.8373 193.015 14.9096C193.527 14.9819 194.094 15.0181 194.716 15.0181C198.594 15.0181 202.088 13.753 205.198 11.2229C206.406 12.994 207.503 14.0602 208.491 14.4217C209.04 14.6024 209.461 14.6928 209.753 14.6928C209.936 14.6928 210.156 14.6566 210.412 14.5843C210.668 14.4759 211.034 14.2771 211.51 13.988V14.6928ZM202.619 31.6084C202.838 31.6084 203.113 31.5542 203.442 31.4458H203.497V18.3253C202.253 18.2892 201.192 17.6024 200.314 16.2651C199.692 16.6265 198.997 16.8072 198.228 16.8072V29.8735C198.521 30.0542 198.869 30.1446 199.271 30.1446L199.491 30.253H199.436C199.546 30.2892 199.655 30.3253 199.765 30.3614C199.911 30.3976 199.985 30.4157 199.985 30.4157C200.351 30.5602 201.009 31.0663 201.96 31.9337L202.619 31.6084Z" fill="white"/>
<path d="M233.68 14.3133V15.1265L233.57 15.2349L233.515 15.3434C233.442 15.4157 233.369 15.488 233.295 15.5602C233.259 15.6325 233.204 15.7048 233.131 15.7771V15.8855C232.911 16.1747 232.783 16.4277 232.747 16.6446V32.1506C232.747 32.2229 232.765 32.2771 232.801 32.3133V32.4217L232.856 32.5843V32.5301C232.893 32.5663 232.911 32.6024 232.911 32.6386C232.911 32.6386 232.929 32.7289 232.966 32.9096L233.021 32.9639C233.021 33.1084 233.039 33.1988 233.076 33.2349L233.131 33.3434V33.3976L233.186 33.4518C233.186 33.5241 233.204 33.5964 233.24 33.6687L233.625 34.4277C232.454 33.741 231.118 33.3976 229.618 33.3976C226.508 33.3976 223.984 34.5723 222.045 36.9217L221.551 36.488C221.478 36.4157 221.405 36.3434 221.331 36.2711C221.295 36.1988 221.24 36.1265 221.167 36.0542C219.667 34.3193 217.892 33.4518 215.843 33.4518C214.636 33.4518 213.557 33.7952 212.605 34.4819C212.935 32.5301 213.923 31.1386 215.569 30.3072V17.3494C215.569 16.7711 215.203 15.9759 214.471 14.9639H215.13L215.24 15.0181H215.898L216.008 15.0723H216.173C218.88 15.0723 221.148 14.4398 222.978 13.1747L220.673 10.6807C220.051 10.0301 219.411 9.39759 218.752 8.78313C218.093 8.16867 217.435 7.60843 216.776 7.10241C216.63 6.99397 216.41 6.8494 216.118 6.66867C215.862 6.45181 215.569 6.19879 215.24 5.90964C214.764 5.51205 213.941 4.64458 212.77 3.30723V2.54819C213.099 2.87349 213.429 3.03614 213.758 3.03614C213.794 3.07229 213.996 3.09036 214.362 3.09036C215.313 3.09036 216.264 2.96385 217.215 2.71084C218.167 2.45783 219.1 2.09638 220.014 1.6265C220.27 2.38554 220.746 3.23494 221.441 4.1747V4.12048L222.813 5.4759L228.521 11.0602C228.594 11.2048 228.631 11.259 228.631 11.2229L229.893 12.5241C230.039 12.6687 230.204 12.8313 230.387 13.012C230.57 13.1928 230.789 13.3916 231.045 13.6084C231.118 13.6807 231.192 13.753 231.265 13.8253C231.375 13.8976 231.466 13.9699 231.539 14.0422H231.484C232.07 14.5843 232.655 14.8554 233.24 14.8554L233.68 14.3133ZM226.655 31.7169L226.71 31.6627V16.8072L224.514 14.5843C223.527 15.5241 222.429 16.1205 221.222 16.3735V29.6024C221.222 29.6024 221.35 29.6386 221.606 29.7108C221.716 29.747 221.899 29.8012 222.155 29.8735C222.411 29.9096 222.777 30 223.252 30.1446C224.277 30.6506 225.155 31.2651 225.886 31.988L225.996 31.8795H226.051L226.161 31.7711H226.326L226.38 31.7169H226.655ZM233.131 15.9398V15.8855C233.131 15.8494 233.167 15.7952 233.24 15.7229L233.131 15.9398ZM233.076 15.8313C233.039 15.8675 233.039 15.8855 233.076 15.8855V15.7771V15.8313Z" fill="white"/>
<path d="M255.539 31.9337L252.082 36.7048H252.027L251.972 36.759H251.753L251.698 36.8133H251.533L251.478 36.8675H251.039C250.161 36.8675 249.247 36.4699 248.295 35.6747C247.929 35.3133 247.6 34.9699 247.307 34.6446C247.015 34.3554 246.777 34.0301 246.594 33.6687L242.862 36.8133H242.533C240.96 36.8133 239.423 36.3614 237.923 35.4578C237.191 34.9518 236.587 34.4096 236.112 33.8313C235.673 33.253 235.362 32.6024 235.179 31.8795C235.033 31.4096 234.959 30.741 234.959 29.8735C234.959 27.0181 236.624 24.4699 239.953 22.2289C239.88 22.1205 239.716 21.9398 239.46 21.6867C239.24 21.3976 238.892 21 238.417 20.494C238.124 20.1687 237.795 19.8072 237.429 19.4096C237.1 18.9759 236.715 18.506 236.276 18H236.331C235.965 17.7831 235.398 17.259 234.63 16.4277C237.264 15.488 239.368 14.0783 240.941 12.1988L241.216 12.5241L241.271 12.6325C241.454 12.8133 241.71 13.1386 242.039 13.6084C242.368 14.0422 242.624 14.4036 242.807 14.6928V14.6386C243.429 15.4337 244.069 15.8313 244.728 15.8313H244.618L244.893 15.7229C244.966 15.7952 245.039 15.8313 245.112 15.8313C245.844 15.8313 246.96 14.8554 248.46 12.9036L248.515 12.7952C248.588 12.6867 248.643 12.5964 248.679 12.5241C248.753 12.4518 248.936 12.2711 249.228 11.9819C249.228 12.3072 249.247 12.488 249.283 12.5241C249.247 12.5241 249.265 12.5964 249.338 12.741C249.448 12.8494 249.576 12.9759 249.722 13.1205V13.0663C250.673 14.2229 251.588 14.8012 252.466 14.8012C252.869 14.8012 253.564 14.6386 254.552 14.3133V14.747C254.552 16.3012 253.765 17.5301 252.192 18.4337V29.6566C252.192 30.3434 252.448 30.9036 252.96 31.3374C253.472 31.7349 254.113 31.9518 254.881 31.988L254.936 31.9337H255.539ZM245.057 32.1506C245.643 32.1506 246.082 32.0422 246.374 31.8253H246.429L246.484 31.7711V18.8675C245.972 18.8675 245.423 18.4879 244.838 17.7289C244.033 18.741 243.027 19.247 241.819 19.247L241.71 19.3012H240.557C240.484 19.3012 240.374 19.3012 240.228 19.3012C240.118 19.3012 240.008 19.2831 239.899 19.247L246.045 26.1325L244.673 27.3253L241.271 23.6928C240.905 24.3795 240.649 24.994 240.502 25.5361C240.356 26.0422 240.283 26.494 240.283 26.8916C240.283 28.3012 240.74 29.5121 241.655 30.5241C242.643 31.6084 243.777 32.1506 245.057 32.1506Z" fill="white"/>
<path d="M279 14.6928L278.945 14.8012V15.0723L278.89 15.1265C278.89 15.3795 278.799 15.6687 278.616 15.994C278.469 16.2831 278.287 16.5723 278.067 16.8614C277.848 17.1506 277.591 17.4217 277.299 17.6747C277.006 17.8916 276.732 18.0542 276.475 18.1627V32.6386C276.475 34.5181 274.884 35.8193 271.701 36.5422C271.262 36.6145 270.841 36.6687 270.439 36.7048C270.073 36.7771 269.743 36.8133 269.451 36.8133C269.304 36.8133 269.195 36.8133 269.122 36.8133C269.085 36.8133 268.92 36.8313 268.628 36.8675C264.749 37.1566 262.81 38.0241 262.81 39.4699C262.81 40.0121 263.158 40.2831 263.853 40.2831C264.182 40.2831 265.298 39.759 267.201 38.7108C269.03 37.6988 270.676 37.1928 272.14 37.1928C273.42 37.1928 274.518 37.5904 275.433 38.3855C276.347 39.1807 276.805 40.1747 276.805 41.3675C276.805 42.4157 276.402 43.2831 275.597 43.9699C274.829 44.6566 273.878 45 272.744 45C271.719 45 271.061 44.8554 270.768 44.5663V42.7229C271.353 43.0482 271.92 43.2108 272.469 43.2108H272.524L272.634 43.1566H272.799C273.018 43.1566 273.274 43.0663 273.567 42.8855C273.86 42.7048 274.006 42.506 274.006 42.2892C274.006 41.9277 273.768 41.747 273.292 41.747L273.183 41.6928H273.128C272.286 41.6928 271.152 42.1265 269.725 42.994C268.884 43.5361 268.152 43.9518 267.53 44.241C266.945 44.5301 266.487 44.7108 266.158 44.7831C265.975 44.8193 265.756 44.8374 265.499 44.8374C265.243 44.8735 264.914 44.8916 264.512 44.8916C263.89 44.8916 263.286 44.7651 262.701 44.5121C262.115 44.2952 261.603 43.988 261.164 43.5904C260.725 43.1928 260.359 42.7229 260.066 42.1807C259.81 41.6747 259.682 41.1145 259.682 40.5V40.2289H259.737C259.81 38.3855 260.743 37.0301 262.536 36.1627C261.804 35.8374 261.146 35.3855 260.56 34.8072C259.682 34.0121 259.243 33.1988 259.243 32.3675V18.2169C259.243 17.3855 258.365 16.8795 256.609 16.6988V16.3193L262.481 11.7651C262.737 11.9096 263.012 12.1084 263.304 12.3614C263.597 12.6145 263.871 12.9036 264.127 13.2289C264.749 14.0602 265.06 14.6747 265.06 15.0723L265.115 15.1807V15.506L265.17 15.5602V17.6747L273.402 12.1988C274.536 13.7169 275.78 14.4759 277.134 14.4759H277.244L277.299 14.4217C277.921 14.4217 278.488 14.2229 279 13.8253V14.6928ZM268.243 34.6988C268.756 34.6988 269.25 34.6084 269.725 34.4277C270.201 34.2108 270.439 33.9036 270.439 33.506V18.7048C270.292 18.6687 270.146 18.6145 270 18.5422C269.853 18.4699 269.689 18.3976 269.506 18.3253L268.573 17.8916L265.225 20.1687V33.1807C265.225 33.9036 265.865 34.3916 267.146 34.6446H267.365C267.402 34.6446 267.439 34.6446 267.475 34.6446C267.512 34.6807 267.567 34.6988 267.64 34.6988C267.676 34.6988 267.695 34.6988 267.695 34.6988C267.731 34.7349 267.768 34.753 267.804 34.753H268.134L268.243 34.6988Z" fill="white"/>
</svg>